# xmcd
#
# Track frame offsets:
#	150
#	17174
#	33214
#	52865
#	69455
#	84217
#	95386
#	116172
#	132180
#	146065
#	159120
#	173269
#	192019
#	204784
#	220254
#	236484
#
# Disc length: 3325 seconds
#
# Revision: 0
# Processed by: cddbd v1.5.2PL0 Copyright (c) Steve Scherf et al.
# Submitted via: EasyCDDAExtractor 16.0.6.1
#
DISCID=c10cfb10
DTITLE=Fegerländer - Flieg ins Fegerland
DYEAR=1900
DGENRE=
TTITLE0=Fegerländer Festmarsch
TTITLE1=Das ist mein Leben
TTITLE2=Sarah
TTITLE3=Fegerländer Musikant
TTITLE4=Polkafreude 
TTITLE5=Amsel Polka
TTITLE6=Böhmischer Traum
TTITLE7=Du, nur du
TTITLE8=Marcha de Libertad
TTITLE9=Hessen Marsch
TTITLE10=Kärntnerlieder Marsch
TTITLE11=Ale Kameraden
TTITLE12=Radetzky Marsch
TTITLE13=Flieg ins Fegerland
TTITLE14=Heißer Feger
TTITLE15=Sey, Drugs and Blasmusik
EXTD=
EXTT0=
EXTT1=
EXTT2=
EXTT3=
EXTT4=
EXTT5=
EXTT6=
EXTT7=
EXTT8=
EXTT9=
EXTT10=
EXTT11=
EXTT12=
EXTT13=
EXTT14=
EXTT15=
PLAYORDER=
